<svg xmlns="http://www.w3.org/2000/svg" viewBox="0 0 1200 1200"><defs><style>.cls-1{fill:#dba0d2;}</style></defs><g id="Graphic_Elements" data-name="Graphic Elements"><g id="Graphic_Elements-2" data-name="Graphic Elements"><path class="cls-1" d="M1054.59,165.68C951.35,54.79,787.25,58.46,688.06,173.87L600,276.32,511.94,173.87C412.76,58.46,248.65,54.78,145.41,165.68S38.89,460,138.08,575.42L600,1112.86l461.92-537.44C1161.11,460,1157.83,276.56,1054.59,165.68Z"/><path d="M600,1137.07,126.12,585.71C75.61,527,48.6,449.84,50.06,368.57s31.21-157.16,83.8-213.65c52.87-56.79,122.5-87.27,196.06-85.8,74,1.46,142.9,35,194,94.46L600,252.11l76.09-88.53c51.09-59.44,120-93,194-94.46,73.55-1.47,143.19,29,196.07,85.8h0c52.59,56.49,82.35,132.36,83.8,213.65S1124.39,527,1073.88,585.71ZM324.9,100.63c-62.84,0-122.33,26.81-167.94,75.8-97.77,105-100.87,279.38-6.91,388.71l450,523.51,450-523.51c94-109.33,90.86-283.7-6.91-388.71-46.68-50.13-107.92-77-172.34-75.75C805.8,102,745.18,131.61,700,184.15L600,300.53,500,184.15C454.82,131.61,394.2,102,329.3,100.67,327.83,100.64,326.36,100.63,324.9,100.63Z"/></g></g></svg>